<?xml version="1.0" standalone="no"?>
<!DOCTYPE svg PUBLIC "-//W3C//DTD SVG 20010904//EN"
 "http://www.w3.org/TR/2001/REC-SVG-20010904/DTD/svg10.dtd">
<svg version="1.0" xmlns="http://www.w3.org/2000/svg"
 width="128.000000pt" height="128.000000pt" viewBox="0 0 128.000000 128.000000"
 preserveAspectRatio="xMidYMid meet">

<g transform="translate(0.000000,128.000000) scale(0.100000,-0.100000)"
fill="#000000" stroke="none">
<path d="M652 1202 c-41 -44 -57 -78 -43 -94 6 -7 21 -26 32 -41 39 -52 109
-60 109 -12 0 13 -4 27 -10 30 -17 10 -11 25 10 25 26 0 26 30 1 37 -17 4 -18
9 -9 28 26 58 -42 78 -90 27z"/>
<path d="M804 1138 c-8 -12 42 -58 64 -58 24 0 12 39 -18 55 -35 18 -37 18
-46 3z"/>
<path d="M872 1048 c-7 -7 -12 -27 -12 -46 0 -26 4 -33 18 -30 11 2 18 14 20
37 4 38 -8 57 -26 39z"/>
<path d="M798 947 c-17 -7 -28 -18 -28 -30 0 -16 5 -18 28 -12 33 8 57 29 48
44 -8 13 -12 13 -48 -2z"/>
<path d="M563 924 c-16 -7 -17 -31 -1 -36 25 -9 59 4 56 21 -3 16 -33 24 -55
15z"/>
<path d="M667 924 c-19 -20 -5 -34 34 -34 33 0 40 3 37 18 -3 17 -57 30 -71
16z"/>
<path d="M482 888 c-14 -14 -16 -38 -3 -38 23 0 41 14 41 31 0 21 -20 25 -38
7z"/>
<path d="M728 857 c-7 -8 -29 -37 -48 -65 -19 -29 -37 -52 -40 -52 -3 0 -20
23 -39 50 -19 28 -38 50 -43 50 -22 0 -17 -33 11 -74 17 -24 31 -49 31 -53 0
-5 -22 -16 -50 -25 -47 -15 -50 -15 -50 1 0 10 -8 25 -19 35 -15 14 -20 14
-29 3 -9 -10 -7 -19 4 -36 9 -12 14 -24 13 -25 -2 -2 -52 -19 -111 -39 l-108
-35 -40 56 c-22 31 -36 59 -32 63 4 4 51 21 104 39 100 32 118 44 100 62 -7 7
-48 -2 -129 -29 -141 -47 -145 -53 -84 -147 23 -34 41 -66 41 -69 0 -4 -21
-38 -46 -76 -57 -87 -56 -109 6 -132 l45 -17 3 -85 c2 -65 7 -88 20 -100 9 -8
104 -41 210 -73 l193 -57 194 58 c107 32 201 65 209 74 10 11 16 44 18 100 l3
83 45 17 c62 23 63 45 6 132 -25 38 -46 72 -46 76 0 3 18 35 41 69 65 100 66
98 -156 171 -104 34 -195 62 -202 62 -6 1 -18 -5 -25 -12z m207 -87 c88 -29
163 -55 167 -59 4 -4 -10 -32 -32 -62 l-40 -56 -175 56 c-96 31 -175 59 -175
64 0 17 74 118 84 114 6 -2 83 -28 171 -57z m-126 -256 c-90 -30 -165 -54
-166 -54 -2 0 -3 49 -3 109 l0 109 167 -55 167 -56 -165 -53z m-373 -31 l172
-57 -46 -68 c-25 -38 -50 -67 -56 -65 -6 2 -85 28 -176 57 -91 28 -167 54
-169 56 -7 6 83 133 94 134 5 0 87 -26 181 -57z m643 -8 c24 -36 42 -67 40
-69 -9 -9 -353 -116 -357 -111 -3 2 -24 33 -47 67 l-43 63 172 57 c94 31 176
57 181 57 6 0 30 -29 54 -64z m-442 -401 c-4 -4 -322 91 -354 105 -21 10 -23
18 -23 81 0 38 1 70 3 70 2 0 57 -18 122 -40 66 -22 129 -38 140 -35 11 2 40
35 65 72 l45 68 3 -159 c1 -87 1 -160 -1 -162z"/>
<path d="M437 823 c-9 -8 -9 -48 -1 -56 14 -13 34 7 34 34 0 27 -17 39 -33 22z"/>
</g>
</svg>
