<?xml version="1.0" standalone="no"?>
<!DOCTYPE svg PUBLIC "-//W3C//DTD SVG 20010904//EN"
 "http://www.w3.org/TR/2001/REC-SVG-20010904/DTD/svg10.dtd">
<svg version="1.0" xmlns="http://www.w3.org/2000/svg"
 width="637.000000pt" height="392.000000pt" viewBox="0 0 637.000000 392.000000"
 preserveAspectRatio="xMidYMid meet">

<g transform="translate(0.000000,392.000000) scale(0.100000,-0.100000)"
fill="#000000" stroke="none">
<path d="M3032 3802 l-74 -26 -44 23 c-24 13 -46 22 -47 20 -17 -26 -37 -86
-37 -111 0 -18 -16 -63 -36 -101 -44 -85 -67 -200 -54 -267 5 -25 9 -65 10
-89 0 -25 9 -64 20 -87 12 -23 24 -59 27 -78 4 -29 26 -57 102 -134 134 -136
159 -153 68 -47 -42 49 -77 96 -77 104 0 11 12 12 63 7 38 -5 58 -4 52 2 -13
12 -96 32 -135 32 -33 0 -42 14 -56 84 -6 37 -6 37 22 30 69 -15 151 -62 187
-106 39 -48 47 -71 21 -61 -10 4 -7 -3 8 -19 12 -13 28 -32 33 -43 9 -14 25
-18 84 -21 62 -2 75 1 89 17 10 11 31 34 47 51 24 25 26 29 8 19 -37 -19 -27
5 24 60 58 62 191 127 207 101 3 -5 -2 -31 -10 -59 l-15 -50 -57 -6 c-31 -2
-73 -12 -92 -21 l-35 -16 35 6 c63 12 94 10 98 -6 1 -9 -37 -58 -85 -109 -48
-52 -79 -89 -68 -83 28 15 235 229 235 242 0 18 32 114 41 125 5 5 9 24 9 43
0 19 5 63 12 99 15 82 -1 172 -48 265 -18 37 -36 85 -39 105 -9 52 -35 123
-46 123 -4 0 -23 -9 -41 -20 -35 -21 -68 -26 -83 -11 -20 18 -125 41 -187 40
-42 0 -88 -9 -136 -27z m402 -59 c-24 -55 -35 -122 -28 -162 4 -20 32 -83 61
-141 30 -58 63 -129 74 -158 l18 -53 -37 -15 c-20 -8 -63 -28 -95 -44 -32 -17
-60 -30 -63 -30 -12 0 -2 29 16 45 11 10 20 29 20 42 0 25 -10 29 -28 11 -6
-6 -14 -9 -17 -6 -6 6 5 19 39 42 17 12 17 13 0 30 -12 13 -27 16 -53 12 -20
-3 -47 -6 -61 -8 -14 -2 -31 -13 -38 -26 -11 -18 -16 -21 -27 -12 -8 7 -17 20
-20 31 -7 22 -35 26 -35 5 0 -8 -7 -22 -16 -31 -15 -14 -17 -14 -28 1 -22 30
-112 53 -150 38 -24 -9 -19 -25 17 -55 18 -16 26 -28 18 -29 -8 0 -23 7 -33
17 -17 15 -18 15 -18 -13 1 -31 50 -94 74 -94 15 0 26 -21 26 -48 -1 -13 -7
-10 -26 12 -26 30 -124 85 -186 105 -53 17 -50 42 17 166 30 57 51 105 48 109
-4 3 1 12 10 19 26 19 48 106 37 142 -36 114 -38 125 -28 125 15 0 68 -40 100
-75 39 -43 43 -75 18 -125 -12 -23 -19 -45 -16 -48 8 -8 55 38 72 70 13 24 18
26 78 25 64 -2 65 -3 95 -44 54 -74 77 -71 41 7 l-24 50 30 43 c24 34 113 107
130 107 2 0 -3 -17 -12 -37z m-551 -40 c13 -68 5 -149 -14 -138 -5 4 -9 1 -9
-4 0 -15 27 -14 34 2 3 6 3 -8 1 -33 -4 -53 -2 -47 -19 -47 -9 0 -16 18 -21
51 -13 95 -13 111 -2 118 9 6 8 8 -2 8 -12 0 -11 3 1 18 9 9 14 25 13 35 -5
29 13 19 18 -10z m618 -5 c10 -37 1 -202 -11 -206 -5 -2 -7 -9 -4 -15 5 -8 4
-9 -4 -2 -15 15 -32 84 -25 103 4 9 11 20 17 24 7 5 7 8 -1 8 -14 0 -18 75 -7
105 9 22 27 14 35 -17z m-290 -480 c27 -20 30 -27 24 -58 -12 -60 -22 -71 -63
-68 -34 3 -37 6 -50 52 -14 48 -14 49 15 72 35 29 37 29 74 2z m57 -116 c-13
-53 -28 -70 -28 -31 0 22 30 93 36 86 2 -2 -2 -27 -8 -55z m-157 -45 c-12 -12
-17 -1 -25 58 l-6 40 21 -44 c13 -30 16 -48 10 -54z m239 76 c-1 -13 -40 -56
-46 -51 -12 13 9 58 27 58 10 0 19 -3 19 -7z m-139 -76 c51 -43 59 -121 13
-130 -29 -5 -31 4 -4 28 25 23 25 41 1 55 -25 13 -78 13 -86 0 -9 -14 -25 -13
-25 2 0 15 50 68 64 68 6 0 23 -10 37 -23z m-83 -97 l23 -30 -26 0 c-21 0 -25
5 -25 30 0 17 1 30 3 30 2 0 13 -13 25 -30z"/>
<path d="M2361 3423 c-57 -12 -120 -71 -157 -148 -30 -63 -31 -95 -4 -95 13 0
21 9 25 28 11 52 52 117 94 147 59 41 144 42 211 3 166 -98 197 -293 77 -481
-86 -134 -217 -190 -442 -191 -142 0 -204 14 -278 62 -43 29 -77 86 -77 131 0
20 -7 34 -20 41 -17 9 -20 7 -26 -17 -34 -158 -140 -220 -358 -210 -101 4
-195 19 -301 46 -22 6 -87 11 -146 11 -93 0 -111 -3 -157 -26 -106 -53 -150
-128 -116 -199 9 -20 31 -46 48 -56 59 -36 162 -17 205 37 46 59 13 74 -42 19
-30 -30 -42 -35 -80 -35 -62 0 -97 29 -97 79 0 47 27 84 83 113 50 26 189 36
277 20 30 -6 106 -20 169 -31 247 -46 410 -15 497 94 l30 38 50 -50 c82 -82
223 -120 394 -108 170 13 275 54 362 140 199 197 178 503 -41 615 -41 20 -135
33 -180 23z"/>
<path d="M3880 3421 c-82 -27 -159 -91 -198 -165 -24 -46 -27 -61 -26 -156 0
-99 3 -109 36 -180 83 -176 219 -258 457 -275 175 -13 313 25 394 108 l48 50
31 -37 c90 -110 255 -141 503 -95 61 11 135 25 165 30 30 6 96 9 145 7 77 -3
98 -8 138 -31 56 -33 77 -61 77 -102 0 -94 -128 -121 -192 -40 -21 27 -48 33
-48 11 0 -23 40 -66 77 -81 46 -19 106 -19 144 1 44 22 74 93 59 138 -12 37
-69 95 -120 121 -44 23 -233 32 -300 15 -112 -28 -263 -50 -346 -50 -163 0
-277 60 -305 162 -6 24 -13 49 -15 56 -2 6 -13 12 -24 12 -16 0 -20 -7 -20
-30 0 -137 -179 -225 -415 -205 -222 20 -342 93 -418 253 -29 61 -32 76 -32
162 1 109 16 149 82 211 139 133 310 89 365 -93 8 -27 17 -38 30 -38 16 0 18
5 12 38 -13 74 -60 143 -121 179 -46 27 -138 39 -183 24z"/>
<path d="M954 3025 c-35 -17 -57 -37 -73 -65 -35 -62 -26 -74 32 -45 49 25 77
31 77 17 0 -4 -11 -24 -25 -45 -29 -41 -17 -49 33 -23 40 21 67 54 93 114 19
45 20 55 8 63 -27 17 -94 9 -145 -16z"/>
<path d="M5254 3035 c-9 -21 11 -80 40 -118 24 -32 76 -67 100 -67 14 0 13 6
-9 37 -14 21 -25 41 -25 45 0 15 31 8 80 -17 45 -23 50 -24 50 -8 0 35 -45 96
-84 116 -22 12 -63 23 -92 25 -44 4 -55 1 -60 -13z"/>
<path d="M3168 2743 c7 -3 16 -2 19 1 4 3 -2 6 -13 5 -11 0 -14 -3 -6 -6z"/>
<path d="M2608 2673 c-28 -7 -21 -18 22 -37 22 -10 40 -21 40 -26 0 -11 -37
-20 -82 -20 -50 0 -55 -14 -15 -44 53 -41 111 -44 176 -9 76 40 84 57 43 92
-49 42 -124 60 -184 44z"/>
<path d="M3623 2655 c-89 -45 -93 -67 -18 -110 63 -38 130 -37 187 0 38 25 40
29 23 36 -11 4 -36 8 -55 8 -19 1 -42 6 -50 11 -13 9 -12 12 5 26 11 8 30 17
43 21 46 11 12 33 -54 33 -16 0 -53 -11 -81 -25z"/>
<path d="M3090 2569 c-78 -61 -218 -137 -305 -164 -160 -51 -93 -48 -1145 -55
-632 -4 -998 -10 -1020 -16 -46 -14 -107 -53 -147 -95 -46 -49 -73 -118 -83
-213 -14 -140 -49 -192 -178 -272 -101 -62 -142 -94 -142 -108 0 -6 44 -38 97
-71 117 -72 187 -138 203 -191 6 -22 15 -73 20 -115 15 -139 79 -232 195 -285
l53 -25 893 -5 c492 -3 939 -9 994 -15 230 -23 427 -103 593 -243 24 -20 49
-36 56 -36 7 0 41 22 75 50 73 59 178 122 241 145 25 9 54 21 65 26 30 14 82
28 165 46 78 16 207 18 1480 26 576 4 559 1 655 88 63 58 92 112 100 189 15
133 41 205 92 251 15 15 77 57 136 94 59 37 106 72 104 78 -2 6 -45 37 -96 68
-189 116 -210 146 -231 323 -19 162 -107 263 -257 295 -36 7 -341 11 -970 12
-859 1 -975 4 -1078 28 -134 31 -320 125 -429 218 -22 18 -44 33 -50 32 -6 0
-45 -27 -86 -60z m-599 -445 c43 -26 64 -62 55 -98 -8 -34 -88 -86 -131 -86
-40 0 -55 16 -55 57 0 62 -45 51 -138 -32 -62 -56 -112 -121 -211 -275 -189
-293 -349 -479 -458 -534 -77 -38 -135 -36 -178 7 -22 22 -35 46 -40 77 -4 25
-9 48 -12 52 -2 4 -29 -18 -61 -48 -142 -138 -282 -158 -328 -48 -13 31 -13
43 2 102 9 37 40 121 69 187 77 177 98 248 98 328 0 52 -5 74 -20 95 -58 79
-149 94 -241 41 -138 -79 -185 -309 -63 -309 20 0 42 -5 49 -12 29 -29 -1
-110 -53 -144 -34 -22 -125 -15 -163 12 -83 61 -98 234 -30 356 30 54 114 140
166 172 115 69 289 95 394 58 124 -45 188 -129 188 -249 0 -87 -22 -161 -104
-356 -37 -87 -65 -161 -62 -165 9 -8 109 92 155 153 24 32 48 83 65 140 75
242 195 377 298 334 29 -12 48 -43 48 -79 0 -20 -32 -89 -88 -190 -42 -77 -80
-201 -88 -292 -5 -63 -4 -78 8 -78 21 0 203 195 219 235 12 30 247 371 299
433 141 169 291 226 411 156z m346 -10 c23 -15 48 -86 38 -107 -4 -6 1 -3 9 7
9 11 16 32 16 47 0 45 31 74 79 73 97 -3 116 -89 56 -246 -6 -15 -2 -18 20
-18 15 0 42 -7 61 -16 31 -15 37 -15 78 1 38 15 50 15 83 5 84 -28 113 -69
113 -160 0 -27 3 -50 8 -50 4 0 16 20 26 43 55 121 168 193 265 168 31 -8 57
-8 79 -2 69 20 127 -33 120 -109 l-5 -45 37 3 c30 3 38 0 49 -21 11 -21 9 -31
-22 -93 -92 -184 -214 -273 -290 -214 l-26 21 -38 -21 c-63 -34 -123 -23 -179
31 l-31 30 -49 -34 c-85 -57 -209 -70 -287 -30 l-28 14 -39 -83 c-21 -46 -45
-106 -51 -133 -7 -28 -20 -58 -28 -67 -21 -27 -77 -23 -106 7 -32 31 -33 97
-5 180 11 32 20 60 20 62 0 1 -11 3 -24 3 -14 0 -38 11 -54 25 -36 30 -37 30
-69 5 -18 -14 -41 -20 -73 -20 -34 0 -52 5 -65 20 -22 24 -38 25 -55 5 -7 -8
-30 -20 -51 -26 -33 -10 -43 -9 -80 9 -39 19 -45 20 -60 6 -27 -24 -108 -28
-148 -7 -59 31 -76 64 -76 146 0 111 58 235 136 293 52 38 131 58 174 44 26
-8 44 -9 66 -1 51 18 100 -5 125 -59 l22 -44 17 39 c70 164 105 257 105 278 0
58 76 81 137 41z m1869 -49 c80 -33 174 -141 174 -201 0 -29 11 -36 30 -19 52
47 137 13 155 -64 l11 -43 12 27 c7 14 12 36 12 49 0 33 26 51 71 51 52 0 90
-38 98 -96 l6 -43 28 43 c21 31 45 50 90 72 66 31 99 35 143 19 19 -8 36 -7
61 2 30 11 39 10 71 -7 44 -24 68 -79 51 -121 -12 -33 -8 -37 23 -25 32 12 68
-10 68 -41 0 -28 -69 -150 -123 -219 -68 -85 -131 -108 -194 -70 -31 20 -32
19 -70 0 -52 -28 -114 -19 -165 22 l-38 30 -41 -33 c-52 -42 -114 -46 -153 -9
l-25 23 -32 -23 c-40 -28 -110 -31 -139 -4 -34 31 -45 86 -30 152 11 52 28
100 51 145 16 31 10 37 -22 21 -24 -12 -39 -13 -72 -5 -23 6 -43 10 -44 8 -1
-1 11 -49 27 -107 64 -223 21 -372 -127 -445 -54 -26 -67 -28 -178 -28 -132
-1 -170 8 -234 54 -60 44 -86 99 -85 185 1 154 116 271 246 251 61 -9 131 -56
154 -103 47 -95 -19 -191 -111 -160 -52 17 -58 26 -51 83 8 69 -10 86 -60 59
-46 -25 -78 -92 -71 -148 7 -54 61 -107 109 -108 122 -4 179 27 207 110 23 71
17 112 -51 326 -67 212 -58 322 32 382 40 28 131 31 186 8z"/>
<path d="M2314 2100 c-99 -31 -213 -153 -382 -410 -144 -219 -222 -320 -308
-399 -82 -75 -99 -77 -112 -16 -21 100 34 319 119 465 55 96 63 142 27 161
-65 35 -172 -103 -232 -296 -40 -130 -51 -147 -156 -257 -78 -81 -101 -99
-121 -96 -41 5 -31 80 26 208 155 342 152 488 -11 569 -130 65 -327 26 -457
-90 -78 -69 -119 -153 -124 -249 -5 -89 13 -133 68 -162 50 -27 85 -23 121 12
37 37 32 54 -15 58 -118 10 -118 216 1 338 45 47 114 82 175 90 58 7 141 -35
181 -93 26 -37 29 -50 28 -116 0 -45 -9 -100 -21 -138 -28 -90 -62 -182 -70
-194 -9 -12 -55 -127 -70 -174 -19 -57 -14 -108 11 -125 61 -43 155 0 277 124
49 49 91 90 94 90 2 0 6 -41 9 -90 5 -112 22 -136 93 -133 108 4 244 134 419
399 217 329 274 402 361 459 30 20 69 39 88 42 29 4 37 1 55 -22 14 -18 20
-35 16 -50 -8 -33 7 -37 51 -12 58 33 65 51 34 83 -21 20 -38 26 -85 30 -32 2
-73 -1 -90 -6z"/>
<path d="M2753 2093 c-7 -2 -13 -13 -13 -22 0 -44 -163 -436 -214 -514 -40
-61 -90 -117 -106 -117 -27 0 -18 37 33 137 69 135 84 182 68 212 -26 47 -91
47 -91 0 0 -37 -109 -261 -152 -313 -55 -67 -95 -36 -84 63 7 62 62 179 104
224 32 34 63 36 59 5 -3 -29 36 -33 41 -5 6 28 -36 67 -72 67 -81 0 -161 -75
-211 -198 -55 -136 -18 -232 89 -232 27 0 45 9 77 40 23 22 43 40 45 40 1 0 5
-12 9 -27 17 -70 66 -73 131 -8 24 25 48 45 53 45 5 0 11 -14 15 -32 15 -74
64 -79 135 -13 26 25 50 45 53 45 3 0 8 -14 12 -32 3 -17 11 -37 17 -45 17
-20 63 -16 93 8 33 26 42 20 28 -18 -79 -214 -83 -230 -53 -257 26 -24 55 -17
59 14 4 25 24 71 152 355 81 179 107 223 146 254 55 43 80 19 76 -74 -4 -60
-54 -174 -102 -228 -37 -42 -57 -47 -62 -15 -3 26 -33 36 -41 15 -3 -8 0 -25
7 -38 14 -29 68 -41 141 -33 65 8 110 32 164 88 46 47 61 47 61 -2 0 -13 13
-37 29 -53 24 -23 38 -29 74 -29 39 0 50 5 84 40 40 39 53 42 53 10 0 -23 32
-50 59 -50 33 0 115 83 166 168 25 42 45 82 45 89 0 24 -17 13 -31 -19 -29
-70 -129 -198 -156 -198 -25 0 -13 41 47 162 65 132 73 175 40 208 -11 11 -24
20 -29 20 -23 0 -41 -14 -41 -31 0 -30 -91 -228 -134 -294 -35 -51 -45 -60
-71 -60 -30 0 -30 0 -33 63 -3 54 2 74 27 128 61 131 124 193 133 132 4 -28
33 -36 42 -12 9 23 -19 62 -50 70 -70 18 -170 -56 -222 -164 -37 -75 -92 -148
-144 -189 -56 -45 -79 -44 -44 2 78 102 111 241 72 301 -37 56 -109 62 -174
15 l-29 -20 -13 24 c-14 25 -57 42 -72 27 -5 -5 -22 -46 -38 -91 -32 -93 -92
-199 -143 -253 -36 -39 -51 -45 -62 -28 -8 13 35 118 111 273 112 226 141 342
93 367 -39 21 -63 6 -76 -49 -18 -78 -162 -409 -208 -481 -77 -119 -122 -152
-112 -82 4 32 37 109 155 362 65 139 78 212 44 243 -19 17 -36 20 -59 10z"/>
<path d="M3173 1705 c-44 -53 -89 -163 -76 -184 6 -9 16 -16 24 -16 19 0 81
120 89 172 10 62 -2 71 -37 28z"/>
<path d="M2293 1688 c-49 -85 -81 -198 -55 -198 15 0 112 180 112 208 0 8 -22
22 -35 22 -2 0 -12 -15 -22 -32z"/>
<path d="M3632 1708 c-31 -39 -72 -139 -72 -178 0 -58 15 -43 74 71 36 71 44
94 35 105 -14 17 -24 18 -37 2z"/>
<path d="M2941 1693 c-1 -6 -4 -20 -7 -30 -5 -17 -5 -17 6 0 6 10 9 23 6 30
-3 9 -5 9 -5 0z"/>
<path d="M4525 2007 c-61 -61 -58 -129 15 -352 74 -227 65 -345 -30 -414 -91
-66 -224 -60 -288 14 -70 79 -47 209 47 272 74 50 135 12 129 -82 l-3 -50 40
0 c34 0 41 4 49 26 28 82 -79 173 -181 154 -19 -3 -52 -22 -74 -42 -81 -73
-104 -196 -50 -269 60 -82 101 -98 256 -99 95 0 116 3 157 23 69 34 112 90
132 169 16 61 16 71 0 142 -9 42 -26 108 -39 146 -84 259 -79 391 13 335 35
-21 72 -86 72 -124 0 -14 -7 -44 -16 -66 -18 -46 -19 -45 17 -54 19 -4 34 0
50 13 19 15 22 27 21 70 -1 63 -34 125 -90 170 -51 40 -82 51 -144 51 -43 0
-54 -4 -83 -33z"/>
<path d="M4665 1893 c8 -57 24 -123 30 -123 9 0 35 60 35 82 0 31 -36 88 -55
88 -14 0 -15 -8 -10 -47z"/>
<path d="M5432 1819 c-50 -15 -106 -79 -152 -172 -42 -86 -119 -194 -146 -204
-9 -3 -20 -1 -26 5 -8 8 7 46 50 132 67 131 80 178 63 216 -8 19 -18 24 -45
24 -31 0 -35 -4 -42 -32 -18 -82 -111 -255 -172 -320 -27 -29 -62 -37 -62 -15
0 6 27 67 61 133 47 95 61 132 61 169 1 51 -10 65 -54 65 -19 0 -28 -5 -28
-15 0 -9 -20 -64 -44 -123 -63 -154 -72 -198 -53 -244 14 -33 20 -38 50 -38
27 0 43 9 78 45 24 25 47 45 50 45 3 0 11 -18 18 -40 8 -28 19 -42 36 -46 36
-9 58 2 114 58 l51 52 17 -41 c21 -49 57 -73 107 -73 29 0 44 8 76 40 22 22
42 40 44 40 2 0 7 -12 11 -27 17 -68 65 -73 126 -12 42 42 122 159 139 203 19
52 -8 24 -58 -58 -65 -106 -99 -146 -123 -146 -30 0 -24 22 42 155 50 103 60
131 57 167 -2 33 -8 45 -27 54 -34 17 -49 8 -62 -40 -16 -60 -119 -265 -152
-303 -36 -41 -74 -44 -83 -7 -19 75 32 221 104 297 32 34 63 36 59 5 -3 -30
37 -33 41 -3 7 48 -56 75 -126 54z"/>
<path d="M5467 1713 c-35 -34 -94 -223 -71 -223 11 0 49 64 89 148 25 54 27
65 15 72 -18 12 -25 12 -33 3z"/>
<path d="M2310 2576 c0 -3 9 -15 20 -26 11 -11 20 -25 20 -31 0 -11 -6 -10
-67 7 -34 9 -29 -12 11 -52 29 -29 41 -34 83 -34 27 0 57 6 67 13 16 12 15 15
-14 55 -17 24 -41 46 -53 51 -44 17 -67 22 -67 17z"/>
<path d="M3994 2560 c-26 -10 -74 -71 -74 -92 0 -54 148 -27 180 32 15 28 6
36 -25 22 -52 -24 -72 -8 -38 30 15 17 15 18 -3 17 -10 0 -29 -4 -40 -9z"/>
<path d="M3545 858 c-3 -7 -4 -86 -3 -173 l3 -160 25 0 c24 0 25 4 30 65 5 63
6 64 37 71 18 3 40 13 50 20 15 13 16 9 8 -46 -14 -105 -13 -110 15 -110 18 0
26 6 28 22 4 27 27 47 45 40 8 -3 17 -19 20 -35 6 -29 7 -30 66 -30 l60 0 3
66 c2 54 6 67 21 70 14 3 17 -4 17 -48 0 -77 9 -87 77 -87 32 0 61 5 65 11 4
6 8 37 8 69 0 44 3 57 15 57 16 0 23 -23 27 -90 l3 -45 242 -3 243 -2 14 35
c19 45 42 45 60 0 12 -27 21 -35 40 -35 15 0 26 5 26 10 0 7 6 7 19 0 32 -17
96 -12 115 9 43 48 27 123 -40 186 -22 21 -34 42 -34 59 0 32 29 36 37 5 4
-15 12 -19 32 -17 22 3 26 7 24 33 -4 57 -80 85 -131 49 -18 -12 -22 -25 -22
-68 0 -50 4 -58 45 -104 28 -32 45 -59 45 -75 0 -38 -17 -42 -35 -7 -12 24
-22 30 -42 28 -26 -3 -26 -2 -45 107 -23 139 -22 135 -56 135 -38 0 -50 -15
-57 -70 -3 -25 -13 -84 -22 -132 l-15 -88 -44 0 -44 0 0 139 c0 83 -4 142 -10
146 -6 3 -19 3 -30 0 -19 -6 -20 -15 -20 -146 l0 -140 -42 3 -43 3 -3 138 c-2
116 -5 139 -19 144 -8 3 -24 1 -34 -6 -15 -8 -23 -8 -38 0 -29 19 -51 4 -51
-33 l-1 -33 -15 28 c-17 32 -50 47 -102 47 -48 0 -59 -8 -65 -45 -4 -28 -5
-29 -12 -7 -10 29 -54 52 -99 52 -66 0 -66 1 -66 -139 -1 -126 -11 -146 -24
-46 -11 80 -29 159 -39 173 -5 6 -23 12 -38 12 -33 0 -48 -26 -50 -83 l-1 -32
-10 37 c-5 20 -18 44 -29 54 -26 23 -126 32 -134 12z m93 -96 c3 -37 1 -42
-17 -42 -18 0 -21 6 -21 38 0 68 33 71 38 4z m330 5 c2 -28 0 -37 -13 -37 -20
0 -29 23 -21 56 9 36 30 24 34 -19z m186 21 c7 -12 6 -25 -2 -43 -16 -35 -32
-23 -32 26 0 42 14 49 34 17z m-373 -87 c2 -29 -1 -46 -9 -49 -13 -4 -16 36
-6 76 9 31 12 25 15 -27z m267 -28 l-4 -28 -14 28 c-11 23 -11 31 0 55 l14 27
4 -27 c2 -16 2 -40 0 -55z m182 20 l-1 -48 -15 28 c-11 20 -12 32 -4 47 16 30
20 25 20 -27z m480 -20 c0 -14 -6 -23 -15 -23 -16 0 -20 26 -9 55 5 13 8 14
15 3 5 -7 9 -23 9 -35z"/>
<path d="M1572 848 c-8 -8 -12 -59 -12 -164 0 -162 6 -183 50 -169 17 5 20 15
20 66 0 48 3 61 18 65 9 3 31 12 48 19 l32 14 4 -66 c5 -76 27 -103 83 -103
49 0 66 9 81 44 13 31 13 31 14 5 0 -15 6 -31 13 -37 16 -14 267 -14 284 0 8
6 23 6 46 -3 43 -15 103 -5 117 21 10 18 11 18 35 -6 26 -26 72 -32 108 -13
32 17 37 28 37 81 0 43 -5 53 -50 103 -50 55 -64 95 -34 95 9 0 18 -9 21 -20
4 -14 14 -20 34 -20 26 0 29 4 29 30 0 43 -31 70 -80 70 -27 0 -47 -7 -60 -20
-25 -25 -25 -25 -50 0 -26 26 -89 27 -121 1 -23 -18 -24 -27 -27 -145 l-4
-126 -39 0 -39 0 0 140 c0 121 -2 142 -16 147 -9 3 -24 2 -33 -4 -13 -8 -16
-34 -19 -147 l-3 -136 -39 0 -40 0 0 129 c0 71 -3 136 -6 145 -13 34 -64 11
-64 -28 -1 -21 -1 -21 -12 -1 -6 11 -18 26 -26 33 -25 19 -86 15 -116 -9 l-26
-20 -26 20 c-30 24 -112 29 -132 9z m93 -93 c0 -30 -4 -41 -17 -43 -15 -3 -18
4 -18 43 0 39 3 46 18 43 13 -2 17 -13 17 -43z m170 -70 c0 -103 -1 -110 -20
-110 -18 0 -20 8 -23 90 -3 108 2 138 26 133 15 -3 17 -17 17 -113z m483 -3
c3 -107 2 -112 -18 -112 -19 0 -20 6 -20 116 0 105 2 115 18 112 15 -3 17 -18
20 -116z m163 -65 c9 -20 9 -31 1 -39 -16 -16 -42 -2 -42 22 0 14 -7 20 -24
20 -31 0 -37 22 -27 94 2 15 79 -66 92 -97z"/>
</g>
</svg>
