<?xml version="1.0" standalone="no"?>
<!DOCTYPE svg PUBLIC "-//W3C//DTD SVG 20010904//EN"
 "http://www.w3.org/TR/2001/REC-SVG-20010904/DTD/svg10.dtd">
<svg version="1.0" xmlns="http://www.w3.org/2000/svg"
 width="500.000000pt" height="500.000000pt" viewBox="0 0 500.000000 500.000000"
 preserveAspectRatio="xMidYMid meet">

<g transform="translate(0.000000,500.000000) scale(0.100000,-0.100000)"
fill="#000000" stroke="none">
<path d="M2285 4814 c-470 -52 -878 -218 -1235 -502 -392 -311 -686 -773 -804
-1260 -49 -204 -61 -310 -60 -562 0 -199 3 -254 22 -360 48 -265 120 -482 234
-700 314 -603 891 -1048 1548 -1194 194 -43 281 -51 525 -51 194 1 250 4 358
23 259 47 431 102 652 211 462 229 829 595 1055 1055 110 224 168 405 212 661
32 188 32 542 0 730 -44 256 -102 437 -212 660 -287 583 -814 1026 -1435 1206
-205 59 -355 80 -600 84 -121 1 -238 1 -260 -1z m491 -149 c404 -53 758 -202
1079 -453 105 -82 311 -295 391 -402 209 -281 341 -586 405 -930 26 -145 37
-450 20 -606 -51 -488 -257 -929 -599 -1286 -255 -266 -567 -460 -919 -571
-215 -68 -407 -97 -651 -97 -490 0 -907 137 -1312 433 -119 87 -343 312 -436
437 -241 325 -384 687 -425 1081 -18 175 -6 483 25 637 92 453 283 810 605
1133 260 259 537 430 874 538 115 37 301 78 407 90 128 14 410 12 536 -4z"/>
<path d="M2413 4444 l-29 -87 -37 82 c-28 63 -41 81 -57 81 -13 0 -20 -7 -20
-20 0 -23 87 -201 103 -212 23 -14 43 14 78 113 38 107 39 129 9 129 -14 0
-25 -20 -47 -86z"/>
<path d="M2631 4419 c-32 -56 -57 -108 -54 -115 8 -22 30 -16 50 11 16 23 22
25 66 19 39 -6 50 -12 58 -31 10 -26 36 -40 49 -27 6 6 -5 55 -28 124 -50 156
-60 157 -141 19z m89 -8 c8 -30 7 -31 -21 -31 -34 0 -34 1 -13 41 18 35 21 34
34 -10z"/>
<path d="M2004 4471 c-41 -18 -74 -69 -74 -117 0 -110 136 -157 215 -74 25 26
30 40 30 80 0 42 -5 54 -31 81 -34 33 -99 47 -140 30z m94 -57 c52 -36 2 -148
-57 -129 -33 10 -61 46 -61 77 0 58 68 87 118 52z"/>
<path d="M3086 4320 c-30 -79 -35 -104 -26 -115 17 -20 37 -8 50 31 13 39 15
40 70 18 29 -12 44 -14 52 -6 18 18 2 37 -41 52 -50 16 -54 22 -38 45 13 16
16 16 65 -1 41 -15 54 -16 64 -6 10 10 9 15 -2 25 -18 17 -117 57 -139 57 -11
0 -28 -30 -55 -100z"/>
<path d="M1737 4378 c-2 -7 4 -29 13 -48 42 -85 40 -87 -44 -41 -102 56 -137
47 -102 -25 8 -16 26 -57 41 -91 29 -65 46 -81 65 -58 9 10 5 27 -14 70 -14
30 -26 58 -26 61 0 3 34 -13 75 -35 123 -68 137 -53 75 84 -31 68 -48 95 -61
95 -9 0 -19 -6 -22 -12z"/>
<path d="M3356 4211 c-47 -92 -54 -115 -36 -126 18 -11 40 16 84 104 44 88 48
111 17 111 -13 0 -33 -28 -65 -89z"/>
<path d="M1425 4219 c-4 -5 9 -35 29 -65 20 -30 34 -54 32 -54 -3 0 -41 12
-86 26 -75 24 -83 25 -98 10 -15 -14 -11 -23 44 -103 32 -48 66 -89 75 -91 31
-6 28 27 -7 78 -20 29 -34 54 -31 56 2 3 35 -7 72 -21 75 -28 113 -32 121 -11
3 7 -21 52 -53 100 -55 82 -82 102 -98 75z"/>
<path d="M3540 4170 c-28 -28 -25 -61 10 -105 17 -21 30 -44 30 -51 0 -24 -38
-15 -59 14 -42 55 -42 55 -59 39 -13 -14 -12 -19 8 -51 36 -60 95 -81 138 -50
33 23 29 72 -8 119 -23 29 -27 41 -19 51 14 17 40 4 63 -31 19 -29 34 -32 43
-9 8 22 -17 63 -49 80 -38 20 -75 17 -98 -6z"/>
<path d="M2332 4129 c-109 -10 -282 -49 -396 -91 -386 -140 -714 -433 -901
-806 -200 -400 -227 -892 -71 -1302 108 -286 310 -558 546 -737 319 -241 722
-357 1123 -324 507 42 950 304 1235 732 257 384 335 886 209 1344 -117 425
-437 814 -834 1014 -285 144 -583 199 -911 170z m323 -49 c860 -81 1501 -850
1426 -1713 -18 -215 -70 -396 -169 -593 -72 -143 -161 -263 -292 -394 -131
-131 -251 -220 -394 -292 -199 -100 -379 -151 -598 -170 -708 -59 -1372 365
-1619 1036 -178 481 -105 1036 191 1458 85 122 270 307 390 390 314 218 680
314 1065 278z"/>
<path d="M3035 3589 c-86 -35 -161 -130 -153 -196 5 -48 58 -43 254 21 188 62
307 87 325 69 8 -8 0 -18 -30 -38 -43 -29 -52 -51 -24 -62 30 -12 203 100 203
132 0 29 -49 32 -174 10 l-87 -15 -39 33 c-77 66 -182 83 -275 46z"/>
<path d="M1700 3522 c0 -5 14 -15 32 -23 62 -28 73 -56 73 -192 0 -67 -13
-237 -28 -377 -16 -140 -37 -340 -47 -445 -27 -262 -45 -334 -96 -374 -15 -12
-40 -21 -55 -21 -16 0 -29 -4 -29 -8 0 -5 98 -19 218 -31 119 -12 225 -24 235
-26 30 -6 18 13 -20 32 -21 10 -45 32 -53 48 -22 43 -17 213 14 490 14 127 32
304 41 395 32 329 52 416 107 454 12 9 35 16 50 16 16 0 28 5 28 10 0 6 -7 10
-15 10 -16 0 -358 37 -417 45 -21 3 -38 1 -38 -3z"/>
<path d="M3182 3325 c-248 -85 -382 -113 -382 -81 0 7 18 25 40 40 23 15 38
31 35 36 -7 11 -66 -16 -143 -67 -123 -82 -79 -113 107 -78 l82 16 32 -27 c50
-42 126 -74 179 -74 121 0 235 86 258 194 21 102 -9 108 -208 41z"/>
<path d="M1990 2832 c0 -5 17 -13 37 -18 30 -7 43 -18 63 -54 l25 -45 3 -555
c2 -390 0 -571 -8 -608 -15 -66 -51 -112 -91 -112 -16 0 -29 -4 -29 -10 0 -6
83 -10 230 -10 147 0 230 4 230 10 0 6 -9 10 -21 10 -36 0 -60 20 -82 68 -20
43 -22 68 -25 280 -4 232 -4 234 19 258 47 50 128 51 254 2 46 -17 81 -23 146
-23 78 0 89 3 127 29 48 33 99 107 108 157 l7 34 -36 -34 c-51 -48 -111 -53
-215 -18 -42 15 -99 31 -127 37 -104 23 -199 -14 -256 -100 l-29 -43 0 356 0
357 211 0 c271 0 335 -15 462 -108 46 -33 115 -115 131 -157 5 -13 10 -15 13
-8 4 10 -31 150 -73 296 -5 16 -39 17 -540 17 -294 0 -534 -4 -534 -8z"/>
<path d="M3127 1431 c-4 -20 -16 -33 -36 -42 l-30 -13 30 -13 c20 -8 31 -21
35 -43 l7 -30 16 32 c9 18 26 37 38 43 l21 9 -21 11 c-12 5 -29 25 -38 43
l-16 32 -6 -29z"/>
<path d="M1150 4014 c-10 -11 -6 -22 23 -56 86 -105 113 -132 130 -125 28 11
20 30 -49 109 -71 84 -87 94 -104 72z"/>
<path d="M3813 4023 c-20 -7 -143 -153 -143 -169 0 -34 32 -26 72 17 99 110
112 129 97 143 -8 8 -19 12 -26 9z"/>
<path d="M702 3188 c-82 -201 -120 -381 -129 -608 -12 -326 41 -588 177 -877
43 -91 52 -103 74 -103 l25 0 -49 98 c-54 108 -110 262 -139 385 -82 340 -60
708 60 1032 56 151 55 145 31 145 -16 0 -27 -16 -50 -72z"/>
<path d="M4233 3243 c3 -10 24 -70 47 -133 167 -461 137 -980 -81 -1412 l-49
-98 26 0 c23 0 31 12 75 105 65 137 111 279 145 440 25 118 28 151 28 345 1
252 -21 399 -87 595 -44 129 -68 175 -89 175 -15 0 -19 -5 -15 -17z"/>
<path d="M920 1573 c0 -10 4 -25 10 -33 7 -11 -5 -23 -52 -55 -66 -43 -79 -61
-54 -71 10 -4 41 10 78 34 l61 40 19 -24 c11 -13 23 -24 28 -24 23 0 15 34
-21 89 -39 59 -69 79 -69 44z"/>
<path d="M3993 1495 c-3 -9 -4 -17 -2 -19 31 -26 148 -96 160 -96 19 0 82 97
75 116 -9 24 -25 15 -51 -26 -14 -22 -27 -40 -29 -40 -3 0 -32 18 -65 40 -66
44 -79 48 -88 25z"/>
<path d="M997 1348 c-36 -29 -68 -58 -71 -65 -6 -14 72 -113 90 -113 25 0 23
18 -6 55 -34 43 -36 53 -14 62 11 4 24 -5 41 -26 26 -33 53 -41 53 -15 0 9
-11 30 -25 46 -14 16 -23 34 -19 39 11 18 33 8 62 -27 28 -34 52 -39 52 -11 0
14 -78 107 -89 107 -5 0 -38 -24 -74 -52z"/>
<path d="M3920 1382 c0 -23 135 -126 155 -118 26 9 17 22 -54 80 -70 58 -101
69 -101 38z"/>
<path d="M3812 1267 c-51 -51 -66 -87 -38 -87 7 0 19 7 26 15 7 8 15 15 19 15
3 0 31 -23 61 -50 59 -54 68 -58 77 -34 4 10 -12 33 -47 69 -51 52 -52 53 -36
77 14 21 14 27 3 36 -10 9 -25 0 -65 -41z"/>
<path d="M1148 1166 c-32 -36 -58 -71 -58 -80 0 -21 29 -20 52 1 25 23 36 8
40 -52 2 -36 7 -50 18 -50 10 0 16 12 18 33 3 26 8 32 26 32 30 0 76 43 76 71
0 24 -79 109 -101 109 -8 -1 -40 -29 -71 -64z m122 -42 c0 -6 -6 -17 -14 -23
-11 -9 -20 -7 -42 13 -29 24 -29 24 -10 45 l19 21 24 -22 c13 -12 23 -27 23
-34z"/>
<path d="M3680 1131 c0 -10 14 -35 30 -56 17 -21 30 -39 30 -41 0 -1 -32 7
-71 18 -73 20 -99 19 -99 -5 0 -20 107 -152 122 -152 24 0 19 31 -12 70 -17
21 -28 40 -26 42 3 3 29 -2 59 -11 71 -21 107 -21 107 0 0 21 -109 154 -126
154 -8 0 -14 -8 -14 -19z"/>
<path d="M1364 1031 c-82 -50 -59 -173 37 -196 13 -3 30 -1 38 4 21 13 5 41
-23 41 -57 0 -77 72 -29 109 38 30 64 21 99 -36 9 -14 15 -15 24 -6 20 19 3
59 -34 82 -41 26 -72 26 -112 2z"/>
<path d="M3421 960 c-11 -6 -12 -26 -7 -91 4 -46 10 -94 13 -107 8 -33 38 -24
38 10 -1 38 62 74 99 56 21 -9 29 -9 39 1 13 13 4 22 -92 89 -78 52 -76 52
-90 42z m78 -87 c3 -2 -4 -10 -15 -17 -22 -17 -34 -5 -34 33 0 24 0 24 23 5
12 -10 24 -20 26 -21z"/>
<path d="M1557 858 c-44 -79 -49 -108 -22 -108 17 0 105 159 98 177 -11 29
-34 9 -76 -69z"/>
<path d="M3240 856 c0 -27 73 -176 86 -176 28 0 25 25 -11 106 -28 62 -42 84
-56 84 -11 0 -19 -6 -19 -14z"/>
<path d="M1710 838 c-90 -61 -47 -191 62 -191 97 0 140 129 62 186 -41 30 -84
32 -124 5z m94 -39 c29 -23 33 -54 10 -87 -18 -26 -65 -30 -88 -6 -22 22 -20
70 4 94 25 25 41 25 74 -1z"/>
<path d="M3036 784 c-22 -8 -41 -16 -43 -18 -5 -4 48 -168 58 -180 12 -14 107
24 129 51 31 39 27 98 -9 134 -33 33 -71 37 -135 13z m103 -50 c27 -34 26 -50
-4 -79 -37 -38 -52 -32 -72 31 -15 48 -15 57 -3 65 27 16 58 9 79 -17z"/>
<path d="M2092 737 c-12 -15 -38 -174 -30 -183 10 -9 79 -23 116 -24 21 0 32
5 32 14 0 15 -13 21 -71 31 -30 6 -36 10 -32 26 5 17 13 19 52 17 35 -2 46 0
46 12 0 10 -16 18 -42 24 -32 7 -43 15 -43 28 0 17 6 18 61 12 56 -6 61 -5 57
12 -2 13 -16 21 -48 26 -25 4 -55 10 -66 13 -12 2 -26 -1 -32 -8z"/>
<path d="M2885 675 c7 -80 -1 -105 -35 -105 -26 0 -39 21 -52 86 -12 61 -24
79 -44 63 -13 -11 -1 -93 21 -146 16 -38 50 -50 104 -37 48 12 63 43 55 114
-9 72 -20 100 -40 100 -14 0 -15 -9 -9 -75z"/>
<path d="M2316 688 c-9 -12 -16 -30 -16 -39 0 -20 43 -57 77 -65 26 -7 31 -32
8 -40 -8 -3 -28 1 -46 10 -33 16 -49 14 -49 -8 0 -15 58 -46 84 -46 30 0 67
24 73 48 8 34 -6 53 -55 76 -71 33 -42 62 30 31 12 -5 20 -2 24 9 9 25 -24 45
-73 46 -32 0 -45 -5 -57 -22z"/>
<path d="M2520 695 c-13 -16 -7 -20 35 -27 18 -3 20 -12 23 -75 3 -72 18 -103
43 -87 8 5 10 30 6 85 l-6 79 29 0 c23 0 30 4 30 20 0 18 -7 20 -74 20 -53 0
-77 -4 -86 -15z"/>
</g>
</svg>
