<?xml version="1.0" standalone="no"?>
<!DOCTYPE svg PUBLIC "-//W3C//DTD SVG 20010904//EN"
 "http://www.w3.org/TR/2001/REC-SVG-20010904/DTD/svg10.dtd">
<svg version="1.0" xmlns="http://www.w3.org/2000/svg"
 width="80.000000pt" height="40.000000pt" viewBox="0 0 80.000000 40.000000"
 preserveAspectRatio="xMidYMid meet">

<g transform="translate(0.000000,40.000000) scale(0.100000,-0.100000)"
fill="#000000" stroke="none">
<path d="M94 331 c-38 -23 -61 -73 -47 -103 5 -12 38 -38 74 -58 35 -20 65
-43 67 -51 5 -29 -24 -52 -69 -55 -24 -2 -46 -3 -49 -4 -3 0 4 -7 14 -15 32
-24 74 -18 107 14 52 52 34 101 -56 149 -59 32 -67 63 -22 95 24 19 31 20 63
8 44 -16 57 -6 25 20 -29 24 -67 24 -107 0z"/>
<path d="M624 331 c-38 -23 -61 -73 -47 -103 5 -12 38 -38 74 -58 35 -20 65
-43 67 -51 5 -29 -24 -52 -69 -55 -24 -2 -46 -3 -49 -4 -3 0 4 -7 14 -15 32
-24 74 -18 107 14 52 52 34 101 -56 149 -59 32 -67 63 -22 95 24 19 31 20 63
8 44 -16 57 -6 25 20 -29 24 -67 24 -107 0z"/>
<path d="M485 323 c31 -76 31 -162 0 -209 -16 -24 -18 -25 -27 -10 -6 10 -16
51 -23 93 -7 41 -15 77 -18 80 -11 10 -24 -7 -42 -54 -10 -26 -30 -66 -44 -88
l-26 -40 -3 110 c-1 60 -7 114 -12 119 -19 19 -32 -49 -28 -151 2 -80 7 -106
20 -119 16 -17 19 -17 39 2 12 10 33 42 47 69 l25 50 11 -37 c15 -50 42 -80
69 -76 32 4 67 79 67 143 0 53 -31 135 -51 135 -7 0 -8 -7 -4 -17z"/>
</g>
</svg>
